0
SECTION
2
HEADER
9
$INSUNITS
70
1
0
ENDSEC
0
SECTION
2
ENTITIES
0
ARC
8
0
10
0.25
20
0.25
40
0.25
50
180
51
270
0
ARC
8
0
10
24.3125
20
0.25
40
0.25
50
270
51
0
0
ARC
8
0
10
24.3125
20
12.9375
40
0.25
50
0
51
90
0
ARC
8
0
10
0.25
20
12.9375
40
0.25
50
90
51
180
0
LINE
8
0
10
0.25
20
0
11
24.3125
21
0
0
LINE
8
0
10
24.3125
20
13.1875
11
0.25
21
13.1875
0
LINE
8
0
10
24.5625
20
0.25
11
24.5625
21
12.9375
0
LINE
8
0
10
0
20
12.9375
11
0
21
0.25
0
LINE
8
0
10
4.456788461538462
20
8.44975
11
4.324288461538462
21
8.44975
0
LINE
8
0
10
4.324288461538462
20
8.44975
11
4.324288461538462
21
7.223749999999999
0
LINE
8
0
10
4.324288461538462
20
7.223749999999999
11
5.43828846153846
21
7.223749999999999
0
LINE
8
0
10
5.43828846153846
20
7.223749999999999
11
5.43828846153846
21
8.44975
0
LINE
8
0
10
5.43828846153846
20
8.44975
11
5.305788461538461
21
8.44975
0
LINE
8
0
10
5.305788461538461
20
8.44975
11
5.305788461538461
21
8.89575
0
LINE
8
0
10
5.305788461538461
20
8.89575
11
5.497130177721005
21
8.933810233744357
0
LINE
8
0
10
5.497130177721005
20
8.933810233744357
11
5.6593418521317345
21
9.042196609406727
0
LINE
8
0
10
5.6593418521317345
20
9.042196609406727
11
5.7677282277941035
21
9.204408283817456
0
LINE
8
0
10
5.7677282277941035
20
9.204408283817456
11
5.805788461538461
21
9.39575
0
LINE
8
0
10
5.805788461538461
20
9.39575
11
5.7677282277941035
21
9.587091716182545
0
LINE
8
0
10
5.7677282277941035
20
9.587091716182545
11
5.6593418521317345
21
9.749303390593274
0
LINE
8
0
10
5.6593418521317345
20
9.749303390593274
11
5.497130177721005
21
9.857689766255643
0
LINE
8
0
10
5.497130177721005
20
9.857689766255643
11
5.305788461538461
21
9.89575
0
LINE
8
0
10
5.305788461538461
20
9.89575
11
5.305788461538461
21
11.79375
0
LINE
8
0
10
5.305788461538461
20
11.79375
11
4.456788461538462
21
11.79375
0
LINE
8
0
10
4.456788461538462
20
11.79375
11
4.456788461538462
21
9.89575
0
LINE
8
0
10
4.456788461538462
20
9.89575
11
3.6917884615384606
21
9.89575
0
LINE
8
0
10
3.6917884615384606
20
9.89575
11
3.6917884615384606
21
10.56775
0
LINE
8
0
10
3.6917884615384606
20
10.56775
11
3.8242884615384614
21
10.56775
0
LINE
8
0
10
3.8242884615384614
20
10.56775
11
3.8242884615384614
21
11.79375
0
LINE
8
0
10
3.8242884615384614
20
11.79375
11
2.710288461538461
21
11.79375
0
LINE
8
0
10
2.710288461538461
20
11.79375
11
2.710288461538461
21
10.56775
0
LINE
8
0
10
2.710288461538461
20
10.56775
11
2.8427884615384613
21
10.56775
0
LINE
8
0
10
2.8427884615384613
20
10.56775
11
2.8427884615384613
21
9.89575
0
LINE
8
0
10
2.8427884615384613
20
9.89575
11
2.651446745355915
21
9.857689766255643
0
LINE
8
0
10
2.651446745355915
20
9.857689766255643
11
2.4892350709451887
21
9.749303390593274
0
LINE
8
0
10
2.4892350709451887
20
9.749303390593274
11
2.3808486952828174
21
9.587091716182545
0
LINE
8
0
10
2.3808486952828174
20
9.587091716182545
11
2.3427884615384613
21
9.39575
0
LINE
8
0
10
2.3427884615384613
20
9.39575
11
2.3808486952828174
21
9.204408283817456
0
LINE
8
0
10
2.3808486952828174
20
9.204408283817456
11
2.4892350709451887
21
9.042196609406727
0
LINE
8
0
10
2.4892350709451887
20
9.042196609406727
11
2.651446745355917
21
8.933810233744357
0
LINE
8
0
10
2.651446745355917
20
8.933810233744357
11
2.8427884615384613
21
8.89575
0
LINE
8
0
10
2.8427884615384613
20
8.89575
11
2.8427884615384613
21
7.223749999999999
0
LINE
8
0
10
2.8427884615384613
20
7.223749999999999
11
3.6917884615384606
21
7.223749999999999
0
LINE
8
0
10
3.6917884615384606
20
7.223749999999999
11
3.6917884615384606
21
8.89575
0
LINE
8
0
10
3.6917884615384606
20
8.89575
11
4.456788461538462
21
8.89575
0
LINE
8
0
10
4.456788461538462
20
8.89575
11
4.456788461538462
21
8.44975
0
LINE
8
0
10
4.456788461538462
20
8.44975
11
4.456788461538462
21
8.44975
0
LINE
8
0
10
10.226442307693599
20
10.941357115384402
11
10.058442307692953
21
10.941357115384402
0
LINE
8
0
10
10.058442307692953
20
10.941357115384402
11
10.058442307692953
21
10.89885711538512
0
LINE
8
0
10
10.058442307692953
20
10.89885711538512
11
9.958442307693849
21
10.89885711538512
0
LINE
8
0
10
9.958442307693849
20
10.89885711538512
11
9.89044230769231
21
10.829357115383972
0
LINE
8
0
10
9.89044230769231
20
10.829357115383972
11
9.89044230769231
21
7.838357115386086
0
LINE
8
0
10
9.89044230769231
20
7.838357115386086
11
9.958442307693849
21
7.7688571153849395
0
LINE
8
0
10
9.958442307693849
20
7.7688571153849395
11
10.058442307692953
21
7.7688571153849395
0
LINE
8
0
10
10.058442307692953
20
7.7688571153849395
11
10.058442307692953
21
7.726357115385656
0
LINE
8
0
10
10.058442307692953
20
7.726357115385656
11
10.226442307693599
21
7.726357115385656
0
LINE
8
0
10
10.226442307693599
20
7.726357115385656
11
10.564442307691378
21
7.652857115387053
0
LINE
8
0
10
10.564442307691378
20
7.652857115387053
11
10.564442307691378
21
7.5553571153857995
0
LINE
8
0
10
10.564442307691378
20
7.5553571153857995
11
10.803442307692775
21
7.5553571153857995
0
LINE
8
0
10
10.803442307692775
20
7.5553571153857995
11
10.803442307692775
21
7.659857115383722
0
LINE
8
0
10
10.803442307692775
20
7.659857115383722
11
11.835442307694816
21
7.659857115383722
0
LINE
8
0
10
11.835442307694816
20
7.659857115383722
11
11.835442307694816
21
7.5553571153857995
0
LINE
8
0
10
11.835442307694816
20
7.5553571153857995
11
12.114442307693169
21
7.5553571153857995
0
LINE
8
0
10
12.114442307693169
20
7.5553571153857995
11
12.114442307693169
21
7.633857115384582
0
LINE
8
0
10
12.114442307693169
20
7.633857115384582
11
12.66144230769127
21
7.633857115384582
0
LINE
8
0
10
12.66144230769127
20
7.633857115384582
11
12.66144230769127
21
7.653357115383937
0
LINE
8
0
10
12.66144230769127
20
7.653357115383937
11
12.972442307696141
21
7.536357115387805
0
LINE
8
0
10
12.972442307696141
20
7.536357115387805
11
13.182442307694709
21
7.536357115387805
0
LINE
8
0
10
13.182442307694709
20
7.536357115387805
11
13.558442307692953
21
7.348857115387805
0
LINE
8
0
10
13.558442307692953
20
7.348857115387805
11
13.859442307692989
21
7.348857115387805
0
LINE
8
0
10
13.859442307692989
20
7.348857115387805
11
13.859442307692989
21
7.3118571153855845
0
LINE
8
0
10
13.859442307692989
20
7.3118571153855845
11
14.52644230769539
21
7.3118571153855845
0
LINE
8
0
10
14.52644230769539
20
7.3118571153855845
11
14.52644230769539
21
7.211357115385119
0
LINE
8
0
10
14.52644230769539
20
7.211357115385119
11
14.84444230769693
21
7.211357115385119
0
LINE
8
0
10
14.84444230769693
20
7.211357115385119
11
14.84444230769693
21
7.306857115385405
0
LINE
8
0
10
14.84444230769693
20
7.306857115385405
11
15.46644230769324
21
7.306857115385405
0
LINE
8
0
10
15.46644230769324
20
7.306857115385405
11
15.77644230769539
21
7.091857115386659
0
LINE
8
0
10
15.77644230769539
20
7.091857115386659
11
16.9404423076941
21
7.091857115386659
0
LINE
8
0
10
16.9404423076941
20
7.091857115386659
11
16.9404423076941
21
6.920357115385441
0
LINE
8
0
10
16.9404423076941
20
6.920357115385441
11
17.787442307693993
21
6.920357115385441
0
LINE
8
0
10
17.787442307693993
20
6.920357115385441
11
17.787442307693993
21
11.747357115384617
0
LINE
8
0
10
17.787442307693993
20
11.747357115384617
11
16.9404423076941
21
11.747357115384617
0
LINE
8
0
10
16.9404423076941
20
11.747357115384617
11
16.9404423076941
21
11.5758571153834
0
LINE
8
0
10
16.9404423076941
20
11.5758571153834
11
15.77644230769539
21
11.5758571153834
0
LINE
8
0
10
15.77644230769539
20
11.5758571153834
11
15.46644230769324
21
11.360857115384654
0
LINE
8
0
10
15.46644230769324
20
11.360857115384654
11
14.84444230769693
21
11.360857115384654
0
LINE
8
0
10
14.84444230769693
20
11.360857115384654
11
14.84444230769693
21
11.45635711538494
0
LINE
8
0
10
14.84444230769693
20
11.45635711538494
11
14.52644230769539
21
11.45635711538494
0
LINE
8
0
10
14.52644230769539
20
11.45635711538494
11
14.52644230769539
21
11.355857115388952
0
LINE
8
0
10
14.52644230769539
20
11.355857115388952
11
13.859442307692989
21
11.355857115388952
0
LINE
8
0
10
13.859442307692989
20
11.355857115388952
11
13.859442307692989
21
11.318857115382253
0
LINE
8
0
10
13.859442307692989
20
11.318857115382253
11
13.558442307692953
21
11.318857115382253
0
LINE
8
0
10
13.558442307692953
20
11.318857115382253
11
13.182442307694709
21
11.131357115382253
0
LINE
8
0
10
13.182442307694709
20
11.131357115382253
11
12.972442307696141
21
11.131357115382253
0
LINE
8
0
10
12.972442307696141
20
11.131357115382253
11
12.66144230769127
21
11.014357115386122
0
LINE
8
0
10
12.66144230769127
20
11.014357115386122
11
12.66144230769127
21
11.033857115385477
0
LINE
8
0
10
12.66144230769127
20
11.033857115385477
11
12.114442307693169
21
11.033857115385477
0
LINE
8
0
10
12.114442307693169
20
11.033857115385477
11
12.114442307693169
21
11.112357115388736
0
LINE
8
0
10
12.114442307693169
20
11.112357115388736
11
11.835442307694816
21
11.112357115388736
0
LINE
8
0
10
11.835442307694816
20
11.112357115388736
11
11.835442307694816
21
11.007857115386336
0
LINE
8
0
10
11.835442307694816
20
11.007857115386336
11
10.803442307692775
21
11.007857115386336
0
LINE
8
0
10
10.803442307692775
20
11.007857115386336
11
10.803442307692775
21
11.112357115388736
0
LINE
8
0
10
10.803442307692775
20
11.112357115388736
11
10.564442307691378
21
11.112357115388736
0
LINE
8
0
10
10.564442307691378
20
11.112357115388736
11
10.226442307693599
21
10.941357115384402
0
LINE
8
0
10
10.226442307693599
20
10.941357115384402
11
10.226442307693599
21
10.941357115384402
0
LINE
8
0
10
9.376596153847585
20
10.400664807690912
11
9.205596153847727
21
10.400664807690912
0
LINE
8
0
10
9.205596153847727
20
10.400664807690912
11
8.967596153849053
21
10.63966480769231
0
LINE
8
0
10
8.967596153849053
20
10.63966480769231
11
8.640596153849877
21
10.63966480769231
0
LINE
8
0
10
8.640596153849877
20
10.63966480769231
11
8.640596153849877
21
10.476664807691844
0
LINE
8
0
10
8.640596153849877
20
10.476664807691844
11
8.086596153846152
21
10.442664807693312
0
LINE
8
0
10
8.086596153846152
20
10.442664807693312
11
8.086596153846152
21
8.236664807692204
0
LINE
8
0
10
8.086596153846152
20
8.236664807692204
11
8.640596153849877
21
8.202664807693672
0
LINE
8
0
10
8.640596153849877
20
8.202664807693672
11
8.640596153849877
21
8.039664807693207
0
LINE
8
0
10
8.640596153849877
20
8.039664807693207
11
8.967596153849053
21
8.039664807693207
0
LINE
8
0
10
8.967596153849053
20
8.039664807693207
11
9.205596153847727
21
8.278664807694604
0
LINE
8
0
10
9.205596153847727
20
8.278664807694604
11
9.376596153847585
21
8.278664807694604
0
LINE
8
0
10
9.376596153847585
20
8.278664807694604
11
9.376596153847585
21
8.08966480769052
0
LINE
8
0
10
9.376596153847585
20
8.08966480769052
11
9.889596153847155
21
8.08966480769052
0
LINE
8
0
10
9.889596153847155
20
8.08966480769052
11
9.889596153847155
21
10.589664807690518
0
LINE
8
0
10
9.889596153847155
20
10.589664807690518
11
9.376596153847585
21
10.589664807690518
0
LINE
8
0
10
9.376596153847585
20
10.589664807690518
11
9.376596153847585
21
10.400664807690912
0
LINE
8
0
10
9.376596153847585
20
10.400664807690912
11
9.376596153847585
21
10.400664807690912
0
LINE
8
0
10
13.181634615381716
20
7.543420961539461
11
13.417634615383902
21
7.425730961536973
0
LINE
8
0
10
13.417634615383902
20
7.425730961536973
11
13.417634615383902
21
6.650920961536595
0
LINE
8
0
10
13.417634615383902
20
6.650920961536595
11
12.937634615384619
21
6.650920961536595
0
LINE
8
0
10
12.937634615384619
20
6.650920961536595
11
12.937634615384619
21
7.55621096153846
0
LINE
8
0
10
12.937634615384619
20
7.55621096153846
11
12.97163461538315
21
7.543420961539461
0
LINE
8
0
10
12.97163461538315
20
7.543420961539461
11
13.181634615381716
21
7.543420961539461
0
LINE
8
0
10
13.181634615381716
20
7.543420961539461
11
13.181634615381716
21
7.543420961539461
0
ENDSEC
0
EOF